<mxfile host="app.diagrams.net" modified="2023-06-06T13:02:52.973Z" agent="Mozilla/5.0 (Windows NT 10.0; Win64; x64) AppleWebKit/537.36 (KHTML, like Gecko) Chrome/113.0.0.0 Safari/537.36" etag="oNJ0541h1E8fPZOTwMeB" version="21.3.7" type="github">
  <diagram name="Page-1" id="ZktxwWNQJHlBE6_k_zuU">
    <mxGraphModel dx="2187" dy="677" grid="1" gridSize="10" guides="1" tooltips="1" connect="1" arrows="1" fold="1" page="1" pageScale="1" pageWidth="850" pageHeight="1100" math="0" shadow="0">
      <root>
        <mxCell id="0" />
        <mxCell id="1" parent="0" />
        <mxCell id="rjX2pdvEv_NBiqiIayFH-51" value="" style="swimlane;startSize=0;strokeColor=#457B9D;fontColor=#1D3557;fillColor=#A8DADC;swimlaneFillColor=default;" vertex="1" parent="1">
          <mxGeometry x="-340" y="180" width="525" height="540" as="geometry" />
        </mxCell>
        <mxCell id="rjX2pdvEv_NBiqiIayFH-50" value="" style="group" vertex="1" connectable="0" parent="rjX2pdvEv_NBiqiIayFH-51">
          <mxGeometry x="50" y="40" width="435" height="460" as="geometry" />
        </mxCell>
        <mxCell id="rjX2pdvEv_NBiqiIayFH-10" value="&lt;font style=&quot;font-size: 14px;&quot;&gt;User&lt;/font&gt;" style="html=1;dashed=0;whiteSpace=wrap;rounded=1;labelBackgroundColor=none;fillColor=#A8DADC;strokeColor=#457B9D;fontColor=#1D3557;" vertex="1" parent="rjX2pdvEv_NBiqiIayFH-50">
          <mxGeometry width="120" height="60" as="geometry" />
        </mxCell>
        <mxCell id="rjX2pdvEv_NBiqiIayFH-18" value="&lt;font style=&quot;font-size: 14px;&quot;&gt;Homepage&lt;/font&gt;" style="whiteSpace=wrap;html=1;dashed=0;rounded=1;labelBackgroundColor=none;fillColor=#A8DADC;strokeColor=#457B9D;fontColor=#1D3557;" vertex="1" parent="rjX2pdvEv_NBiqiIayFH-50">
          <mxGeometry y="120" width="120" height="60" as="geometry" />
        </mxCell>
        <mxCell id="rjX2pdvEv_NBiqiIayFH-19" value="" style="edgeStyle=orthogonalEdgeStyle;rounded=1;orthogonalLoop=1;jettySize=auto;html=1;labelBackgroundColor=none;strokeColor=#457B9D;fontColor=default;" edge="1" parent="rjX2pdvEv_NBiqiIayFH-50" source="rjX2pdvEv_NBiqiIayFH-10" target="rjX2pdvEv_NBiqiIayFH-18">
          <mxGeometry relative="1" as="geometry" />
        </mxCell>
        <mxCell id="rjX2pdvEv_NBiqiIayFH-20" value="&lt;font style=&quot;font-size: 14px;&quot;&gt;Signup or &lt;br&gt;Login&lt;/font&gt;" style="rhombus;whiteSpace=wrap;html=1;dashed=0;verticalAlign=middle;strokeWidth=1;rounded=1;labelBackgroundColor=none;fillColor=#A8DADC;strokeColor=#457B9D;fontColor=#1D3557;" vertex="1" parent="rjX2pdvEv_NBiqiIayFH-50">
          <mxGeometry x="200" y="110" width="110" height="80" as="geometry" />
        </mxCell>
        <mxCell id="rjX2pdvEv_NBiqiIayFH-21" value="" style="edgeStyle=orthogonalEdgeStyle;rounded=1;orthogonalLoop=1;jettySize=auto;html=1;labelBackgroundColor=none;strokeColor=#457B9D;fontColor=default;" edge="1" parent="rjX2pdvEv_NBiqiIayFH-50" source="rjX2pdvEv_NBiqiIayFH-18" target="rjX2pdvEv_NBiqiIayFH-20">
          <mxGeometry relative="1" as="geometry" />
        </mxCell>
        <mxCell id="rjX2pdvEv_NBiqiIayFH-38" style="edgeStyle=orthogonalEdgeStyle;rounded=1;orthogonalLoop=1;jettySize=auto;html=1;entryX=1;entryY=0.5;entryDx=0;entryDy=0;labelBackgroundColor=none;strokeColor=#457B9D;fontColor=default;" edge="1" parent="rjX2pdvEv_NBiqiIayFH-50" source="rjX2pdvEv_NBiqiIayFH-22" target="rjX2pdvEv_NBiqiIayFH-20">
          <mxGeometry relative="1" as="geometry">
            <Array as="points">
              <mxPoint x="360" y="290" />
              <mxPoint x="360" y="150" />
            </Array>
          </mxGeometry>
        </mxCell>
        <mxCell id="rjX2pdvEv_NBiqiIayFH-22" value="Check" style="ellipse;whiteSpace=wrap;html=1;dashed=0;strokeWidth=1;fontSize=14;rounded=1;labelBackgroundColor=none;fillColor=#A8DADC;strokeColor=#457B9D;fontColor=#1D3557;" vertex="1" parent="rjX2pdvEv_NBiqiIayFH-50">
          <mxGeometry x="215" y="240" width="80" height="80" as="geometry" />
        </mxCell>
        <mxCell id="rjX2pdvEv_NBiqiIayFH-23" value="" style="edgeStyle=orthogonalEdgeStyle;rounded=1;orthogonalLoop=1;jettySize=auto;html=1;labelBackgroundColor=none;strokeColor=#457B9D;fontColor=default;" edge="1" parent="rjX2pdvEv_NBiqiIayFH-50" source="rjX2pdvEv_NBiqiIayFH-20" target="rjX2pdvEv_NBiqiIayFH-22">
          <mxGeometry relative="1" as="geometry" />
        </mxCell>
        <mxCell id="rjX2pdvEv_NBiqiIayFH-40" style="edgeStyle=orthogonalEdgeStyle;rounded=1;orthogonalLoop=1;jettySize=auto;html=1;exitX=0.25;exitY=0;exitDx=0;exitDy=0;labelBackgroundColor=none;strokeColor=#457B9D;fontColor=default;" edge="1" parent="rjX2pdvEv_NBiqiIayFH-50" source="rjX2pdvEv_NBiqiIayFH-25" target="rjX2pdvEv_NBiqiIayFH-20">
          <mxGeometry relative="1" as="geometry">
            <Array as="points">
              <mxPoint x="210" y="380" />
            </Array>
          </mxGeometry>
        </mxCell>
        <mxCell id="rjX2pdvEv_NBiqiIayFH-25" value="Backend" style="whiteSpace=wrap;html=1;dashed=0;strokeWidth=1;fontSize=14;rounded=1;labelBackgroundColor=none;fillColor=#A8DADC;strokeColor=#457B9D;fontColor=#1D3557;" vertex="1" parent="rjX2pdvEv_NBiqiIayFH-50">
          <mxGeometry x="195" y="380" width="120" height="60" as="geometry" />
        </mxCell>
        <mxCell id="rjX2pdvEv_NBiqiIayFH-26" value="" style="edgeStyle=orthogonalEdgeStyle;rounded=1;orthogonalLoop=1;jettySize=auto;html=1;labelBackgroundColor=none;strokeColor=#457B9D;fontColor=default;" edge="1" parent="rjX2pdvEv_NBiqiIayFH-50" source="rjX2pdvEv_NBiqiIayFH-22" target="rjX2pdvEv_NBiqiIayFH-25">
          <mxGeometry relative="1" as="geometry" />
        </mxCell>
        <mxCell id="rjX2pdvEv_NBiqiIayFH-48" style="edgeStyle=orthogonalEdgeStyle;rounded=1;orthogonalLoop=1;jettySize=auto;html=1;entryX=0.018;entryY=0.135;entryDx=0;entryDy=0;entryPerimeter=0;exitX=1;exitY=0.3;exitDx=0;exitDy=0;labelBackgroundColor=none;strokeColor=#457B9D;fontColor=default;" edge="1" parent="rjX2pdvEv_NBiqiIayFH-50" source="rjX2pdvEv_NBiqiIayFH-35" target="rjX2pdvEv_NBiqiIayFH-25">
          <mxGeometry relative="1" as="geometry">
            <mxPoint x="100" y="399" as="sourcePoint" />
            <mxPoint x="198" y="399" as="targetPoint" />
          </mxGeometry>
        </mxCell>
        <mxCell id="rjX2pdvEv_NBiqiIayFH-35" value="Database" style="shape=cylinder;whiteSpace=wrap;html=1;boundedLbl=1;backgroundOutline=1;fontSize=14;rounded=1;labelBackgroundColor=none;fillColor=#A8DADC;strokeColor=#457B9D;fontColor=#1D3557;" vertex="1" parent="rjX2pdvEv_NBiqiIayFH-50">
          <mxGeometry x="20" y="360" width="80" height="100" as="geometry" />
        </mxCell>
        <mxCell id="rjX2pdvEv_NBiqiIayFH-46" style="edgeStyle=orthogonalEdgeStyle;rounded=1;orthogonalLoop=1;jettySize=auto;html=1;entryX=1;entryY=0.5;entryDx=0;entryDy=0;labelBackgroundColor=none;strokeColor=#457B9D;fontColor=default;" edge="1" parent="rjX2pdvEv_NBiqiIayFH-50" source="rjX2pdvEv_NBiqiIayFH-25" target="rjX2pdvEv_NBiqiIayFH-35">
          <mxGeometry relative="1" as="geometry" />
        </mxCell>
        <mxCell id="rjX2pdvEv_NBiqiIayFH-36" value="User Data" style="text;html=1;align=center;verticalAlign=middle;resizable=0;points=[];autosize=1;strokeColor=none;fillColor=none;fontSize=13;rounded=1;labelBackgroundColor=none;fontColor=#1D3557;" vertex="1" parent="rjX2pdvEv_NBiqiIayFH-50">
          <mxGeometry x="270" y="190" width="80" height="30" as="geometry" />
        </mxCell>
        <mxCell id="rjX2pdvEv_NBiqiIayFH-41" value="Response" style="text;html=1;align=center;verticalAlign=middle;resizable=0;points=[];autosize=1;strokeColor=none;fillColor=none;fontSize=13;rounded=1;labelBackgroundColor=none;fontColor=#1D3557;" vertex="1" parent="rjX2pdvEv_NBiqiIayFH-50">
          <mxGeometry x="135" y="258" width="80" height="30" as="geometry" />
        </mxCell>
        <mxCell id="rjX2pdvEv_NBiqiIayFH-42" value="Validated&amp;nbsp;&lt;br style=&quot;font-size: 13px;&quot;&gt;user data" style="text;html=1;align=center;verticalAlign=middle;resizable=0;points=[];autosize=1;strokeColor=none;fillColor=none;fontSize=13;rounded=1;labelBackgroundColor=none;fontColor=#1D3557;" vertex="1" parent="rjX2pdvEv_NBiqiIayFH-50">
          <mxGeometry x="250" y="323" width="80" height="40" as="geometry" />
        </mxCell>
        <mxCell id="rjX2pdvEv_NBiqiIayFH-43" value="Invalid&amp;nbsp;&lt;br style=&quot;font-size: 13px;&quot;&gt;user data" style="text;html=1;align=center;verticalAlign=middle;resizable=0;points=[];autosize=1;strokeColor=none;fillColor=none;fontSize=13;rounded=1;labelBackgroundColor=none;fontColor=#1D3557;" vertex="1" parent="rjX2pdvEv_NBiqiIayFH-50">
          <mxGeometry x="355" y="218" width="80" height="40" as="geometry" />
        </mxCell>
      </root>
    </mxGraphModel>
  </diagram>
</mxfile>
